<svg xmlns="http://www.w3.org/2000/svg" viewBox="0 0 804.51 315.25"><defs><style>.cls-1{fill:#62a644;}.cls-2{fill:#4e5f2a;}.cls-3{fill:#ec2024;}.cls-4{fill:#fff;}.cls-5{fill:#e41e26;}.cls-6{fill:#e60000;}</style></defs><g id="Layer_2" data-name="Layer 2"><g id="Camada_1" data-name="Camada 1"><path class="cls-1" d="M535.87,99.59c.12-.56,11,3.55,26.52,2.53a82,82,0,0,0,41.53-15c10-7.17,15.86-14.84,20.09-20.47a110.94,110.94,0,0,0,15.4-28.47L702.2,69.76a88,88,0,0,1-27.1,25.93c-10.74,6.51-20.19,9-27.5,10.92-15.78,4.15-28.72,4.26-40.17,4.29a231,231,0,0,1-24.37-1.37C556.92,106.75,535.71,100.37,535.87,99.59Z"/><path class="cls-2" d="M535.87,99.59A69.89,69.89,0,0,0,561.61,90a96.55,96.55,0,0,0,15-12.09c3.35-3.19,6-6.06,7.8-8.19a44.16,44.16,0,0,0,9.36,11.31,43.65,43.65,0,0,0,9.56,6.24,73.93,73.93,0,0,1-18.14,9.94,79.83,79.83,0,0,1-19.89,4.48A86.85,86.85,0,0,1,535.87,99.59Z"/><path class="cls-3" d="M658.13,106.87q-3,1-5.85,1.87v36.48H577V16.52h75.27V41.26l11.7,6V19.15A18.62,18.62,0,0,0,645.36.53h-62.2a18.63,18.63,0,0,0-18.63,18.62V170.67a18.63,18.63,0,0,0,18.63,18.62h62.2A18.62,18.62,0,0,0,664,170.67v-66C662.11,105.43,660.17,106.16,658.13,106.87Z"/><rect class="cls-4" x="606.46" y="156.53" width="17.94" height="16.57"/><rect class="cls-4" x="588.32" y="160.91" width="8.97" height="8.29"/><rect class="cls-4" x="633.53" y="160.91" width="8.97" height="8.29"/><path class="cls-3" d="M433.87,292.44l-.18-56.55a41.48,41.48,0,0,1,44.07-3.31,34.65,34.65,0,0,1,18.33-4.68c3.31.11,13.43.44,20.87,8.38a26.56,26.56,0,0,1,6.43,12.48q-.09,21.84-.19,43.68h-16V256a12.38,12.38,0,0,0-4.66-9,11.74,11.74,0,0,0-9.56-2.15,11.46,11.46,0,0,0-6.43,4.29v43.29h-16.6V255.78a11.11,11.11,0,0,0-2.32-6.24,11.33,11.33,0,0,0-6-3.9,10.33,10.33,0,0,0-8,.59,9.41,9.41,0,0,0-3.7,3.89v41.93Z"/><rect class="cls-3" x="530.61" y="251.68" width="31.78" height="15.6"/><path class="cls-3" d="M627.52,260.46c-.06-2.88-.65-14.46-9.75-23-7.64-7.18-16.74-7.95-24.18-8.58-8.79-.75-25.74,2.34-25.74,2.34v84h15.6V290.14a37.76,37.76,0,0,0,15.6,1.91c3.56-.32,11-1,17.74-6.44C627.53,276.89,627.57,263,627.52,260.46ZM610,263.19c-.07.66-1.17,9.56-8.39,13.26-4,2-8.07,1.61-10.4,1.36a23.32,23.32,0,0,1-7.73-2.21V244.28a30.15,30.15,0,0,1,12.8.39c2.76.69,5.59,1.4,8.26,3.7C610.83,253.81,610,262.79,610,263.19Z"/><path class="cls-3" d="M678.54,234c-7.54-5.41-16.14-5.17-18.46-5.07-2.62.1-12.36.66-20.15,8.45-7.1,7.09-8.11,15.73-8.45,19-1.14,11.18,3.16,25,13.78,31.59,6.5,4.06,13.54,4.31,18.44,4.49a55.53,55.53,0,0,0,16.66-2.15,59.28,59.28,0,0,0,6.89-2.34V276.77l-7,.39-1.56,1.3a32.11,32.11,0,0,1-17,.78,17.22,17.22,0,0,1-8.45-4,16,16,0,0,1-4.55-7.93h41C692.25,253.89,688,240.78,678.54,234Zm-30.42,19.36a12.29,12.29,0,0,1,3.51-6.75,12.6,12.6,0,0,1,8.32-3.38A13.3,13.3,0,0,1,670.22,247a12.58,12.58,0,0,1,3.25,6.36Z"/><path class="cls-3" d="M737.82,246.23V233a43.65,43.65,0,0,0-10.27-3.51,37.58,37.58,0,0,0-16-.26c-4.14.87-8.07,1.69-11.7,5.07A19.2,19.2,0,0,0,694,246.49c0,.82-.41,8.07,4.68,13.38,3.6,3.76,8.43,5,11.31,5.72,1.24.32,4.1,1,8.84,2.21,2.23.59,4.15,1.13,5.59,2.86a5.33,5.33,0,0,1,1.43,3.64c-.14,2.09-2,4-4.55,4.81a37.36,37.36,0,0,1-7.54.26,37.78,37.78,0,0,1-11.18-2.47l-6.37-.26V288a42.72,42.72,0,0,0,12,4.16,40.46,40.46,0,0,0,10.27.65c3.5-.24,7.51-.52,12-2.86a20.54,20.54,0,0,0,9.36-9,16.81,16.81,0,0,0-4.29-21.19,21.94,21.94,0,0,0-8.19-3.9c-2.35-.71-5-1.22-8.84-2-3.33-.63-4.89-.83-6.5-2.21a5.77,5.77,0,0,1-2.34-4.15,5.38,5.38,0,0,1,1.95-4,5.92,5.92,0,0,1,4-1.43,24.86,24.86,0,0,1,7.15-.26,25.74,25.74,0,0,1,12.35,4.81Z"/><path class="cls-3" d="M795.41,230.37a61.71,61.71,0,0,0-16.12-1.69c-4.59.17-9.85.36-15.73,3a34.94,34.94,0,0,0-16.51,16c-1.49,3-5.84,13.12-1.95,24.69A28.81,28.81,0,0,0,755,286.52c7.45,5.6,18.49,7.79,27.3,3.51a22.22,22.22,0,0,0,5.85-4.16v4.84l16.34.07,0-57.81A73.7,73.7,0,0,0,795.41,230.37Zm-7.22,41.89a17.51,17.51,0,0,1-6.53,4.77,15,15,0,0,1-7.31,1.27,14.24,14.24,0,0,1-8.19-3.35,14.51,14.51,0,0,1-4.42-7.15,17.86,17.86,0,0,1-.26-9c.43-2.22,1.4-7.21,5.72-10.91s9.35-3.91,12.35-4a25.33,25.33,0,0,1,8.74,1.17Q788.25,258.65,788.19,272.26Z"/><rect class="cls-5" x="360.91" y="2.41" width="5.25" height="284.59"/><g id="surface1"><path class="cls-6" d="M90.34,10c36-14.35,77.9-13.35,112.92,3.3-10-1.51-20.13-.37-30,1.3A145.29,145.29,0,0,0,101,51.08c-19.11,18.78-32.5,43.7-36.28,70.37-2.5,18.89-.18,38.71,8.3,55.91a83.3,83.3,0,0,0,42.65,40.48c17.86,7.55,38.57,7.47,56.67.73,27.14-10,46.64-36.87,48.87-65.6,1.41-18.84-3.17-38.87-15.83-53.32-12.08-14.14-29.75-21.93-47.43-26.36-.94-17.44,7.27-34.66,20.3-46,7.23-6.53,16.21-10.69,25.5-13.35l.7-.24A144.86,144.86,0,0,1,268,73.27a141.76,141.76,0,0,1,18.12,72.51c-.12,32.61-12.31,64.9-33.2,89.83A143.34,143.34,0,1,1,90.34,10Z"/><path class="cls-4" d="M173.25,14.63c9.88-1.67,20-2.81,30-1.3l1.44.25-1,.36c-9.29,2.66-18.27,6.82-25.5,13.35-13,11.34-21.24,28.56-20.3,46,17.68,4.43,35.35,12.22,47.43,26.36C218,114.1,222.61,134.13,221.2,153c-2.23,28.73-21.73,55.63-48.87,65.6-18.1,6.74-38.81,6.82-56.67-.73A83.3,83.3,0,0,1,73,177.36c-8.48-17.2-10.8-37-8.3-55.91C68.49,94.78,81.88,69.86,101,51.08A145.29,145.29,0,0,1,173.25,14.63Z"/></g></g></g></svg>